<svg id="Ebene_1" data-name="Ebene 1" xmlns="http://www.w3.org/2000/svg" viewBox="0 0 30.88 32"><path d="M13.24,14.32V4.09H4.55V14.32ZM6.83,7.75c0-.94.72-1.57,1.84-1.69V4.9h.77V6.05a3.86,3.86,0,0,1,1.8.62l-.43.92A3.66,3.66,0,0,0,9,7c-.61,0-1,.23-1,.65,0,1.35,3.33.63,3.32,2.85,0,1-.76,1.63-1.88,1.76v1.25H8.67V12.28a3.73,3.73,0,0,1-2.2-1l.45-.91A3.22,3.22,0,0,0,9,11.32c.72,0,1.16-.28,1.16-.76C10.17,9.19,6.83,10,6.83,7.75Z" transform="translate(-1.06 -0.5)"/><path d="M8.18,24.17a2.6,2.6,0,0,0-2.59-2.59H2.78V3.09a.87.87,0,0,1,.87-.87H22.83a.87.87,0,0,1,.87.87V9.93h1.72V3.09A2.59,2.59,0,0,0,22.84.5H3.65A2.59,2.59,0,0,0,1.06,3.09V22.76l5.86,6.8h8V27.83H8.18Z" transform="translate(-1.06 -0.5)"/><path d="M30,10.92H17.82a2,2,0,0,0-2,2V30.54a2,2,0,0,0,2,2H30a2,2,0,0,0,2-2V12.88A2,2,0,0,0,30,10.92ZM21.23,29.56H18.17V27.92h3.06Zm0-3.11H18.17V24.81h3.06Zm0-3.11H18.17V21.71h3.06Zm4.19,6.22H22.37V27.92h3.05Zm0-3.11H22.37V24.81h3.05Zm0-3.11H22.37V21.71h3.05Zm4.2,6.22H26.57V24.81h3.05Zm0-6.22H26.57V21.71h3.05Zm0-4.08H18.17V13.65H29.62Z" transform="translate(-1.06 -0.5)"/><rect x="13.27" y="8.05" width="7.84" height="1.31"/><rect x="13.27" y="4.69" width="7.84" height="1.31"/><rect x="3.49" y="15.87" width="10.32" height="1.31"/><rect x="3.49" y="19.14" width="10.32" height="1.31"/><rect x="8.25" y="22.41" width="5.56" height="1.31"/></svg>