<svg id="Ebene_1" data-name="Ebene 1" xmlns="http://www.w3.org/2000/svg" viewBox="0 0 59.99 60"><path d="M29,38a3,3,0,0,1-3-3H24a5,5,0,0,0,10,0H32A3,3,0,0,1,29,38Z" transform="translate(-2 -2)"/><path d="M13.5,27h-3a2.5,2.5,0,0,0,0,5H11V30h-.5a.5.5,0,0,1,0-1h3a.5.5,0,0,1,.5.5,3.67,3.67,0,0,1-1.64,3.06A3,3,0,0,0,11,35.1V36h2v-.9a1.07,1.07,0,0,1,.48-.89A5.68,5.68,0,0,0,16,29.5,2.5,2.5,0,0,0,13.5,27Z" transform="translate(-2 -2)"/><rect x="9" y="36" width="2" height="2"/><path d="M54,7a8,8,0,0,0-7.15,4.44L39.71,4.29a1,1,0,0,0-1.42,0A1,1,0,0,0,38,5v6H33v2h6a1,1,0,0,0,1-1V7.41L47.59,15,40,22.59V19a1,1,0,0,0-1-1H33v2h5v5a1,1,0,0,0,1,1,1,1,0,0,0,.71-.29L41,24.41V35.1a6,6,0,0,1-1.76,4.24l-.9.9A6,6,0,0,1,34.1,42H23.9a6,6,0,0,1-4.24-1.76l-.39-.39A10,10,0,0,0,15,23.46V20h4v5a1,1,0,0,0,1,1,1,1,0,0,0,.71-.29L24.41,22H33V20H26.41l4.3-4.29a1,1,0,0,0,0-1.42L25.85,9.43A11.91,11.91,0,0,1,29,9h7V7H29a13.7,13.7,0,0,0-4.74.85L20.71,4.29a1,1,0,0,0-1.42,0A1,1,0,0,0,19,5v6H8a1,1,0,0,0-1,1V24.35A10,10,0,0,0,17,41.66c.27-.15.52-.32.77-.49l.49.49A8,8,0,0,0,23,44v4H21A13,13,0,0,0,8,61a1,1,0,0,0,1,1H49a1,1,0,0,0,1-1A13,13,0,0,0,37,48H35V44a8,8,0,0,0,4.76-2.29l.9-.9A8,8,0,0,0,43,35.1V22.41l3.85-3.85A8,8,0,0,0,51,22.41V24H50v2h1v1a3,3,0,0,0,6,0V26h1V24H57V22.41A8,8,0,0,0,54,7ZM9,13H20a1,1,0,0,0,1-1V7.41L28.59,15,21,22.59V19a1,1,0,0,0-1-1H14a1,1,0,0,0-1,1v4.05a9.84,9.84,0,0,0-4,.41ZM4,33a8,8,0,1,1,8,8A8,8,0,0,1,4,33ZM25,44h8v7a4,4,0,0,1-8,0Zm12,6A11,11,0,0,1,48,60H10.05A11,11,0,0,1,21,50h2v1a6,6,0,0,0,12,0V50ZM55,27a1,1,0,0,1-2,0V26h2Zm0-3H53V22.93a7.18,7.18,0,0,0,2,0Zm0-3.09V17.72L57.32,17l-.64-1.9L54,16l-2.68-.9L50.68,17l2.32.77v3.2A6,6,0,0,1,48.38,17l1.33-1.33a1,1,0,0,0,0-1.41L48.38,13A6,6,0,1,1,55,20.91Z" transform="translate(-2 -2)"/><rect x="47" y="3.59" width="2" height="2.83" transform="translate(8.52 33.41) rotate(-45)"/><rect x="51" width="2" height="3"/><rect x="58.59" y="4" width="2.83" height="2" transform="translate(12.04 41.89) rotate(-45)"/></svg>