<svg id="Ebene_1" data-name="Ebene 1" xmlns="http://www.w3.org/2000/svg" viewBox="0 0 98.35 79.38"><path d="M83.18,80.85H79.7V57.51a8.1,8.1,0,0,1-11.15-2.67,7.92,7.92,0,0,1-1.14-3.23H64.1A12.3,12.3,0,0,1,51.82,39.32V18a12.13,12.13,0,0,1,1-4.72l-.43-.17-6.22-2.42a5.36,5.36,0,0,0-3.9,0L11.11,22.77a4.56,4.56,0,0,0-2.49,4.34V80.85H5.14a4.43,4.43,0,0,0,0,8.85h78a4.43,4.43,0,1,0,.42-8.85h-.38ZM40.66,74.93l-25,.65V69.36l25-2Zm0-15.06-25,3.27V56.91l25-4.58Zm0-15.06-25,5.89V44.47l25-7.19Zm0-15.06-25,8.5V32.14l25-9.75ZM92.42,11.11H64.1A6.88,6.88,0,0,0,57.24,18h0V39.32a6.87,6.87,0,0,0,6.86,6.86h8.67v4.41a2.69,2.69,0,0,0,2.69,2.69,2.73,2.73,0,0,0,1.9-.79l6.31-6.31h8.74a6.87,6.87,0,0,0,6.86-6.86V18a6.88,6.88,0,0,0-6.85-6.89Zm-9,24.41a5.78,5.78,0,0,1-3,1.93c-.35.1-.45.22-.43.55s0,.68,0,1v.5a1,1,0,0,1-1,1H77.32a1,1,0,0,1-1-1V38.32a2.26,2.26,0,0,0,0-.52,2.73,2.73,0,0,0-.48-.1,10.75,10.75,0,0,1-3-.86c-.86-.42-1-.76-.77-1.68.15-.56.31-1.13.48-1.68.09-.29.26-.83.79-.83a1.55,1.55,0,0,1,.66.21,9,9,0,0,0,3.08.92A3.61,3.61,0,0,0,79,33.53a1.33,1.33,0,0,0,.85-1,1.36,1.36,0,0,0-.54-1.24,4.43,4.43,0,0,0-1.11-.65l-1-.42a16.54,16.54,0,0,1-2.3-1.07A4.92,4.92,0,0,1,72,24.44a5.22,5.22,0,0,1,3.79-4.83c.65-.24.65-.24.65-.89v-.94c0-.88.28-1.14,1.16-1.17h.82c1.52,0,1.63.25,1.64,1.81,0,.74,0,.74.74.85a9.64,9.64,0,0,1,2.35.7,1,1,0,0,1,.63,1.26v0l-.15.54c-.13.46-.26.91-.41,1.36s-.33,1.14-1.43.61a6.84,6.84,0,0,0-3.42-.68,2.21,2.21,0,0,0-.84.17,1.13,1.13,0,0,0-.72.85,1.1,1.1,0,0,0,.46,1,6,6,0,0,0,1.48.83l.34.14a24.41,24.41,0,0,1,2.55,1.17,5.72,5.72,0,0,1,2.88,3.9,5.36,5.36,0,0,1-1.1,4.36Z" transform="translate(-0.92 -10.32)"/></svg>