<svg id="Ebene_1" data-name="Ebene 1" xmlns="http://www.w3.org/2000/svg" viewBox="0 0 215.8 237.13"><path d="M68.64,227.94a16,16,0,0,1-.3-4.65l.46-5.69V94.75A24.36,24.36,0,0,1,63.93,88,28.87,28.87,0,0,1,61,75.17a31.6,31.6,0,0,1,.34-4.54H27.09a16.92,16.92,0,0,0-7.34,1.91c-4.81,2.38-10,7.59-13.61,16.82S0,112,0,132.27c0,5.23.17,10.91.54,17.1a7.13,7.13,0,0,0,7.12,6.73l.42,0a7.15,7.15,0,0,0,6.72-7.55c-.35-5.93-.51-11.34-.51-16.26,0-21.63,3.12-33.78,6.22-40.12V226.09a11,11,0,1,0,22.08,0v-80.6h4.13v80.6a11,11,0,0,0,21.92,1.85ZM41.26,78.53h6.79l1.69,6.69-.25.41a7.55,7.55,0,0,1-9.67,0l-.26-.41Zm3.39,57.59L36.17,125.4l4.89-36a10.09,10.09,0,0,0,3.59.66h0a10.09,10.09,0,0,0,3.59-.66l4.89,36Z"/><circle cx="44.65" cy="45.45" r="20.09"/><path d="M154.78,75.15A29.17,29.17,0,0,1,151.87,88a23.87,23.87,0,0,1-4.86,6.7v123l.45,5.59a16.4,16.4,0,0,1-.28,4.65,11,11,0,0,0,21.91-1.86v-80.6h4.14v80.6a11,11,0,1,0,22.07,0V92.2A40,40,0,0,1,196.89,96c2.52,7,4.63,18.42,4.63,36.29,0,4.92-.16,10.33-.51,16.27a7.15,7.15,0,0,0,6.72,7.55h.42a7.16,7.16,0,0,0,7.13-6.73c.35-6.19.52-11.87.52-17.1,0-27-4.34-41.87-10.21-50.83a25.12,25.12,0,0,0-9.53-8.89,17,17,0,0,0-7.33-1.91l-.33,0h-34A33.08,33.08,0,0,1,154.78,75.15Zm16.37,61-8.48-10.72,4.89-36a10.14,10.14,0,0,0,3.59.66h0a10.05,10.05,0,0,0,3.59-.66l4.89,36Zm-3.39-57.59h6.79l1.7,6.69-.26.41a7.55,7.55,0,0,1-9.67,0l-.25-.41Z"/><circle cx="171.15" cy="45.45" r="20.09"/><path d="M135,119V98.33h-.13a17.07,17.07,0,0,1-6.88-1.58,49.78,49.78,0,0,1-4.5-2.33l-.53-.3a59.08,59.08,0,0,0-7.7-3.91l-.06,0,3,21.8-9.5,12-9.5-12,3-22.36A51.94,51.94,0,0,0,93,94.07l-2.63,1.48-.76.38A18.58,18.58,0,0,1,81,98.33h-.16V119L72.33,223.62a12.36,12.36,0,1,0,24.64,2l7.45-91.37h7l7.45,91.37a12.37,12.37,0,1,0,24.65-2Z"/><circle cx="107.9" cy="22.5" r="22.5"/><path d="M65,75.16a25.06,25.06,0,0,0,2.49,11.09A19,19,0,0,0,75.93,95a11.16,11.16,0,0,0,4.95,1.17H81c4-.11,6.17-1.46,8.32-2.51,6.19-3.38,12-7.56,21.5-7.6a32,32,0,0,1,4.81.37A8,8,0,0,0,118,70.56a49.1,49.1,0,0,0-7.19-.54A47.82,47.82,0,0,0,88,76c-2.54,1.34-4.62,2.6-6.06,3.39l-.12-.22a7.71,7.71,0,0,1-.6-1.78l2-1.26c1.07-.62,2.34-1.34,3.74-2.07a52.07,52.07,0,0,1,17.35-5.79,8.88,8.88,0,0,1-1.16-.8l-.29-.47,1.9-7.5h7.6l1.9,7.5-.29.46c-.19.16-.4.31-.6.45,1.63.09,3.25.25,4.87.49a10.15,10.15,0,0,1,6.41,3.69c2.56,1.13,4.8,2.33,6.86,3.49l1,.55,2,1.26a7.25,7.25,0,0,1-.61,1.78,2.09,2.09,0,0,1-.1.21c-.88-.48-2-1.13-3.34-1.88s-2.53-1.41-4-2.15a10.08,10.08,0,0,1,.4,4.65,10.25,10.25,0,0,1-9.7,8.67,75.87,75.87,0,0,1,7.35,3.84,47.42,47.42,0,0,0,4.28,2.23,15.25,15.25,0,0,0,6,1.41h.07a11.22,11.22,0,0,0,5-1.18,19.09,19.09,0,0,0,8.41-8.71A26,26,0,0,0,145,58.8a23.22,23.22,0,0,0-16.91-8,8.49,8.49,0,0,0-.88,0H88.58a8.49,8.49,0,0,0-.88,0,23.2,23.2,0,0,0-16.9,8A25.31,25.31,0,0,0,65,75.16Z"/></svg>