<?xml version="1.0" encoding="utf-8"?>
<!-- Generator: Adobe Illustrator 25.0.1, SVG Export Plug-In . SVG Version: 6.00 Build 0)  -->
<svg version="1.1" id="Ebene_1" xmlns="http://www.w3.org/2000/svg" xmlns:xlink="http://www.w3.org/1999/xlink" x="0px" y="0px"
	 viewBox="0 0 33 41.2" style="enable-background:new 0 0 33 41.2;" xml:space="preserve">
<path d="M13.2,14.3V4.1H4.5v10.2L13.2,14.3L13.2,14.3z M6.8,7.8c0-0.9,0.7-1.6,1.8-1.7V4.9l0.8,0V6c0.7,0.1,1.3,0.3,1.8,0.6
	l-0.4,0.9C10.1,7.2,9.5,7,9,7C8.4,7,8,7.2,8,7.7c0,1.3,3.3,0.6,3.3,2.9c0,1-0.8,1.6-1.9,1.8v1.2H8.7v-1.2c-0.8-0.1-1.6-0.4-2.2-1
	l0.4-0.9C7.6,11,8.3,11.3,9,11.3c0.7,0,1.2-0.3,1.2-0.8C10.2,9.2,6.8,10,6.8,7.8z"/>
<path d="M8.2,24.2c0-1.4-1.2-2.6-2.6-2.6H2.8V3.1c0-0.5,0.4-0.9,0.9-0.9h19.2c0.5,0,0.9,0.4,0.9,0.9v6.8h1.7V3.1
	c0-1.4-1.2-2.6-2.6-2.6H3.6c-1.4,0-2.6,1.2-2.6,2.6v19.7l5.9,6.8h8v-1.7H8.2V24.2z"/>
<path d="M30,10.9H17.8c-1.1,0-2,0.9-2,2v17.7c0,1.1,0.9,2,2,2H30c1.1,0,2-0.9,2-2V12.9C31.9,11.8,31.1,10.9,30,10.9z M21.2,29.6
	h-3.1v-1.6h3.1V29.6z M21.2,26.4h-3.1v-1.6h3.1V26.4z M21.2,23.3h-3.1v-1.6h3.1V23.3z M25.4,29.6h-3.1v-1.6h3.1V29.6z M25.4,26.4
	h-3.1v-1.6h3.1V26.4z M25.4,23.3h-3.1v-1.6h3.1V23.3z M29.6,29.6h-3.1v-4.7h3.1V29.6z M29.6,23.3h-3.1v-1.6h3.1V23.3z M29.6,19.3
	H18.2v-5.6h11.4V19.3z"/>
<rect x="14.3" y="8.5" width="7.8" height="1.3"/>
<rect x="14.3" y="5.2" width="7.8" height="1.3"/>
<rect x="4.5" y="16.4" width="10.3" height="1.3"/>
<rect x="4.5" y="19.6" width="10.3" height="1.3"/>
<rect x="9.3" y="22.9" width="5.6" height="1.3"/>
</svg>
